/* XPM */
static const char *add_channel_xpm[]={
"16 16 72 2",
"#f c None",
".r c #000000",
".a c #555555",
".C c #585858",
"Qt c #5a5a5a",
".c c #5d5d5d",
".D c #5e2479",
".b c #642780",
".# c #666666",
".B c #6e308b",
".A c #6f2f90",
".z c #763796",
".y c #793b9c",
".x c #7e3ea3",
".P c #800000",
".w c #8242a7",
".v c #894caf",
".o c #8957a0",
".n c #8d61a4",
".s c #9056b5",
".m c #9065a8",
".u c #915ab1",
".t c #925ab5",
".l c #9570ab",
".k c #9873ae",
".j c #a480b9",
".i c #a881be",
".h c #ae86c5",
".g c #b892cd",
".f c #b895ce",
".3 c #c0c000",
"#. c #c1c10a",
".q c #c3c3c3",
".e c #c7c7c7",
".p c #dddddd",
".4 c #dedeb6",
".X c #dedebf",
".T c #dedec4",
".Q c #dedec8",
"#e c #dedecb",
"#d c #dedece",
"#c c #deded0",
"#b c #deded4",
"#a c #deded8",
".5 c #dededc",
".L c #dedede",
".d c #e4e4e4",
".K c #eeeee6",
".E c #eeeeee",
".O c #ffc0c0",
".Y c #ffff00",
".V c #ffff85",
"## c #ffffc0",
".Z c #ffffde",
".W c #ffffdf",
".9 c #ffffe2",
".8 c #ffffe6",
".7 c #ffffea",
".2 c #ffffec",
".6 c #ffffee",
".1 c #ffffef",
".S c #fffff0",
".N c #fffff2",
".0 c #fffff3",
".R c #fffff4",
".M c #fffff5",
".U c #fffff6",
".J c #fffff7",
".I c #fffff9",
".H c #fffffb",
".G c #fffffd",
".F c #ffffff",
"Qt.#.a.b.b.b.b.b.b.b.b.b.b.a.a.a",
".c.d.e.f.g.h.i.j.k.l.m.n.o.p.q.r",
".a.e.e.s.t.u.v.w.x.y.z.A.B.e.q.r",
".a.C.C.D.D.D.D.D.D.D.D.D.D.C.C.r",
".a.E.F.F.F.F.F.F.F.F.G.H.I.J.K.r",
".a.L.F.F.F.F.F.F.G.I.M.N.O.P.Q.r",
".a.L.F.F.F.O.P.P.O.R.S.O.P.O.T.r",
".a.L.F.F.O.P.O.U.P.O.C.V.O.W.X.r",
".a.L.F.O.P.O.F.C.V.P.C.Y.Z.C.V.r",
".a.L.O.P.O.0.1.2.C.Y.3.Y.3.Y.4.r",
".a.5.P.O.N.6.7.8.9#.##.V##.3.C.r",
".a#a#b#c#d#e.C.V.Y.Y.V.F.V.Y.Y.V",
".a.r.r.r.r.r.r.r.r.3##.V##.3.r.r",
"#f#f#f#f#f#f#f#f.r.Y.3.Y.3.Y#f#f",
"#f#f#f#f#f#f#f.r.V#f.r.Y#f.r.V#f",
"#f#f#f#f#f#f#f#f#f#f.r.V#f#f#f#f"};
