/* XPM */
static const char * back_xpm[] = {
"28 35 28 1",
" 	c None",
". 	c #DEDEDE",
"+	c #31FF9C",
"@	c #838183",
"#	c #39FF9C",
"$	c #008183",
"%	c #39FA9C",
"&	c #CDCEFF",
"*	c #088108",
"=	c #C5CEF6",
"-	c #08FF08",
";	c #008200",
">	c #003839",
",	c #CDCAFF",
"'	c #083441",
")	c #CDCEF6",
"!	c #202420",
"~	c #088183",
"{	c #292029",
"]	c #00FF00",
"^	c #083439",
"/	c #08FA08",
"(	c #202020",
"_	c #4199A4",
":	c #4A99A4",
"<	c #41999C",
"[	c #000000",
"} 	c #FFFFFF",
"                            ",
"                            ",
"                            ",
"              +@            ",
"             #+$            ",
"            %+&*@           ",
"           ++=-;>           ",
"          +%=#,;'@          ",
"         +#)%=-*!~          ",
"        +%=+&+,;{!@         ",
"       #+,+,+,]&]&^         ",
"      ++&+)#=-,]&/$'        ",
"     ++&+,+&/)-=]&((        ",
"     -+%++%]+/+/%]{!        ",
"      *_:__<_____<{>        ",
"       ;_*_*:;*;;*('        ",
"        *_*<;*;**;>$        ",
"         ;_*_*;;*;'@        ",
"          ;_;*;{!!{         ",
"        @@@*:;*>^'$@@@@     ",
"         @@@^<;'>@@@@@@@    ",
"           @@>_>^@@@@@@     ",
"            @@>'@@@@        ",
"                            ",
"                            ",
"     [[[[            [      ",
"     [   [           [      ",
"     [   [ [[[   [[  [  [   ",
"     [[[[     [ [  [ [ [    ",
"     [   [  [[[ [    [[     ",
"     [   [ [  [ [    [ [    ",
"     [   [ [  [ [  [ [  [   ",
"     [[[[   [[ [ [[  [  [   ",
"                            ",
"                            "};
