/* XPM */
static const char *configuration_xpm[]={
"32 32 115 2",
"Qt c None",
".i c #000000",
"#K c #0e0e0e",
"#W c #131313",
".b c #303030",
".U c #313131",
".2 c #323232",
".P c #3d3d3d",
".a c #454545",
".# c #464646",
".R c #505050",
".C c #5d5d5d",
".J c #636363",
".4 c #646464",
"#T c #656565",
".j c #686868",
"#l c #747474",
"#z c #767676",
"#a c #777777",
"#n c #787878",
"#u c #797979",
"#y c #7b7b7b",
"#g c #838383",
"## c #878787",
"#x c #888888",
"#k c #898989",
"#N c #8b8b8b",
"#f c #8d8d8d",
".m c #8e8e8e",
"#F c #8f8f8f",
".h c #929292",
"#G c #949494",
"#j c #969696",
"#e c #979797",
".7 c #989898",
".1 c #999999",
"#t c #9a9a9a",
".l c #9b9b9b",
"#S c #9d9d9d",
"#P c #9e9e9e",
"#O c #9f9f9f",
".g c #a0a0a0",
"#M c #a1a1a1",
".H c #a2a2a2",
".u c #a3a3a3",
".Y c #a4a4a4",
"#D c #a5a5a5",
"#i c #a6a6a6",
".G c #a8a8a8",
"#J c #aaaaaa",
"#E c #ababab",
"#C c #adadad",
"#L c #aeaeae",
".O c #b0b0b0",
"#. c #b1b1b1",
"#I c #b3b3b3",
"#s c #b4b4b4",
".f c #b5b5b5",
"#q c #b6b6b6",
"#r c #b7b7b7",
".A c #b8b8b8",
".6 c #b9b9b9",
".n c #bbbbbb",
".q c #bcbcbc",
".5 c #bdbdbd",
"#B c #bebebe",
".Q c #bfbfbf",
"#v c #c0c0c0",
".w c #c1c1c1",
".T c #c2c2c2",
".I c #c3c3c3",
".X c #c4c4c4",
".3 c #c5c5c5",
"#A c #c6c6c6",
".F c #c7c7c7",
"#w c #c9c9c9",
"#p c #cbcbcb",
"#R c #cccccc",
"#d c #cdcdcd",
".e c #cecece",
".t c #cfcfcf",
".N c #d1d1d1",
".9 c #d2d2d2",
".0 c #d4d4d4",
"#c c #d5d5d5",
".z c #d6d6d6",
".p c #d7d7d7",
".E c #d8d8d8",
".M c #d9d9d9",
".y c #dadada",
".s c #dbdbdb",
".k c #dcdcdc",
".L c #dddddd",
".Z c #dedede",
".K c #dfdfdf",
".D c #e0e0e0",
".W c #e1e1e1",
".v c #e2e2e2",
".x c #e3e3e3",
".S c #e4e4e4",
".B c #e5e5e5",
".o c #e6e6e6",
".8 c #e7e7e7",
"#H c #e8e8e8",
"#o c #e9e9e9",
".d c #ececec",
"#h c #ededed",
".r c #eeeeee",
".V c #efefef",
"#V c #f0f0f0",
"#b c #f1f1f1",
"#Q c #f2f2f2",
"#m c #f3f3f3",
".c c #fdfdfd",
"#U c #ffffff",
"QtQtQtQtQtQtQtQtQtQtQtQtQtQtQtQtQtQtQtQtQtQtQtQtQtQtQtQtQtQtQtQt",
"QtQtQtQtQtQtQtQtQt.#.#.#.#.#.#.aQtQtQtQtQtQtQtQtQtQtQtQtQtQtQtQt",
"QtQtQtQtQtQtQtQt.b.c.c.d.e.f.g.h.#.#.aQtQtQtQtQtQtQtQtQtQtQtQtQt",
"QtQtQtQtQtQtQt.i.i.j.j.c.d.k.e.f.g.l.m.#.#QtQtQtQtQtQtQtQtQtQtQt",
"QtQtQtQtQtQtQt.i.n.g.g.j.j.c.d.d.k.e.f.g.h.bQtQtQtQtQtQtQtQtQtQt",
"QtQtQtQtQtQtQt.i.o.p.q.g.g.j.j.c.d.r.s.t.f.u.bQtQtQtQtQtQtQtQtQt",
"QtQtQtQtQtQtQtQt.i.i.v.k.w.g.g.j.j.c.x.y.z.A.l.bQtQtQtQtQtQtQtQt",
"QtQt.#.#QtQtQtQtQtQt.i.i.B.k.w.g.g.C.D.v.E.F.G.bQtQtQtQtQtQtQtQt",
"Qt.b.c.H.#.#QtQtQtQtQtQt.i.i.B.p.I.J.K.L.M.N.O.PQtQtQtQtQtQtQtQt",
"Qt.b.c.D.Q.u.b.bQtQtQtQtQtQt.i.i.g.R.S.L.L.M.T.g.UQtQtQtQtQtQtQt",
"Qt.i.c.V.W.I.X.Y.b.bQtQtQtQtQt.#.j.T.Z.Z.E.0.w.1.2QtQtQtQtQtQtQt",
"Qt.i.j.c.V.B.K.3.I.u.b.bQtQtQt.4.5.K.Z.k.E.p.6.7.UQtQtQtQtQtQtQt",
"Qt.i.g.j.c.V.v.8.K.Q.5.g.b.b.b.n.M.v.K.p.9.E#.###a.iQtQtQtQtQtQt",
"Qt.i.I.g.j.c.V#b.L.L.s.N.n.n.n#c.M.K.E.p.K#d#e#f#g#a.i.iQtQtQtQt",
"QtQt.i.I.g.j.c.c.d#h.d.M.M.M.M.M.M.Z.p.p.v.5#i#i.g#j#k#l.#.#QtQt",
"QtQt.i#m.I.g.j#n.c.c.c.d.d.d.d.d.d#o.y#p.3.f#q#r#s#..G#t#f#u.#.#",
"QtQtQt.i#m.I.g.g.j.j#n.c.c.c.c.c.c.S#d.A#v#p.E.N#w#v.A.O.G#j#x#y",
"QtQtQtQt.i#m.k.I.I.g.g.j.j.j.j.j.j#z.0.k.N.K.8.Z.z.e#A#B.f#C#D.l",
"QtQtQtQtQt.i.I#m.k.k.w.5#B#r#E.u#F#G.j#n.S#H.S.d.S.kQt#p.I.n#I#J",
"QtQtQtQtQtQt#K.i.I#m.M.N#c.A#L#M#N#D#O#P.4#n#o#b#Q#o.W.M.N#w#v.A",
"QtQtQtQtQtQtQtQt.i.i.i.n.8#w.q#D#P.q#R#B.g#S#T#n.c#U#V.8.Z.z.e#A",
"QtQtQtQtQtQtQtQtQtQtQt.i.i#W.i.i.i.6.W#c.k.I.g.g.j#n#U.c.d.S.kQt",
"QtQtQtQtQtQtQtQtQtQtQtQtQtQtQtQtQt.i.i.X#Q.k.k.I.g.u.j#n.c.c#o.W",
"QtQtQtQtQtQtQtQtQtQtQtQtQtQtQtQtQtQtQt.i.i.I#m.k.k.I.g.g.j#n.c.c",
"QtQtQtQtQtQtQtQtQtQtQtQtQtQtQtQtQtQtQtQtQt.i.i.I#m.k.k.I.g.g.j#n",
"QtQtQtQtQtQtQtQtQtQtQtQtQtQtQtQtQtQtQtQtQtQtQt.i.i.I#m.k.k.I.g.g",
"QtQtQtQtQtQtQtQtQtQtQtQtQtQtQtQtQtQtQtQtQtQtQtQtQt.i.i.I#m.k.k.I",
"QtQtQtQtQtQtQtQtQtQtQtQtQtQtQtQtQtQtQtQtQtQtQtQtQtQtQt.i.i.I#m.k",
"QtQtQtQtQtQtQtQtQtQtQtQtQtQtQtQtQtQtQtQtQtQtQtQtQtQtQtQtQt.i.i.I",
"QtQtQtQtQtQtQtQtQtQtQtQtQtQtQtQtQtQtQtQtQtQtQtQtQtQtQtQtQtQtQt.i",
"QtQtQtQtQtQtQtQtQtQtQtQtQtQtQtQtQtQtQtQtQtQtQtQtQtQtQtQtQtQtQtQt",
"QtQtQtQtQtQtQtQtQtQtQtQtQtQtQtQtQtQtQtQtQtQtQtQtQtQtQtQtQtQtQtQt"};
