/* XPM */
static const char * pause_xpm[] = {
"25 25 34 1",
" 	c None",
".	c #000000",
"+	c #080408",
"@	c #080808",
"#	c #000400",
"$	c #101010",
"%	c #C5C2C5",
"&	c #ACA5AC",
"*	c #949194",
"=	c #525552",
"-	c #181818",
";	c #B4B2B4",
">	c #EEEAEE",
",	c #BDBABD",
"'	c #525052",
")	c #201C20",
"!	c #B4AEB4",
"~	c #FFFFFF",
"{	c #7B757B",
"]	c #080C08",
"^	c #101410",
"/	c #949594",
"(	c #737173",
"_	c #100C10",
":	c #A4A5A4",
"<	c #9C999C",
"[	c #8B8D8B",
"}	c #9C959C",
"|	c #202020",
"1	c #6A6D6A",
"2	c #DEDEDE",
"3	c #948D94",
"4	c #626162",
"5	c #5A555A",
"                         ",
"                         ",
"                         ",
"                         ",
"                         ",
"                         ",
"                         ",
"                         ",
"      .+@@#.  .+@@#.     ",
"      $%&*=#  $%&*=#     ",
"      -;>,'@  -;>,'@     ",
"      )!~*{]  )!~*{]     ",
"      ^!~/($  ^!~/($     ",
"      $;~*{_  $;~*{_     ",
"      ]:~/($  ]:~/($     ",
"      $<~[{_  $<~[{_     ",
"      ]}~[($  ]}~[($     ",
"      $(>[{.  $(>[{.     ",
"      |123(.  |123(.     ",
"      +43(5.  +43(5.     ",
"      ......  ......     ",
"                         ",
"                         ",
"                         ",
"                         "};
