/* XPM */
static const char * play_xpm[] = {
"25 25 41 1",
" 	c None",
".	c #393439",
"+	c #313031",
"@	c #625D62",
"#	c #000000",
"$	c #C5C6C5",
"%	c #626162",
"&	c #CDC6CD",
"*	c #E6E6E6",
"=	c #BDBABD",
"-	c #F6F2F6",
";	c #DEDEDE",
">	c #292829",
",	c #B4B2B4",
"'	c #E6E2E6",
")	c #292429",
"!	c #CDCACD",
"~	c #9C999C",
"{	c #949194",
"]	c #181C18",
"^	c #ACA5AC",
"/	c #8B898B",
"(	c #201C20",
"_	c #838583",
":	c #8B858B",
"<	c #9C959C",
"[	c #C5C2C5",
"}	c #101410",
"|	c #838183",
"1	c #ACAEAC",
"2	c #7B757B",
"3	c #393839",
"4	c #181418",
"5	c #080C08",
"6	c #7B7D7B",
"7	c #100C10",
"8	c #7B797B",
"9	c #A49DA4",
"0	c #000400",
"a	c #737173",
"b	c #414041",
"                         ",
"                         ",
"                         ",
"                         ",
"          .+             ",
"          +@#            ",
"          .$%#           ",
"          +&*@#          ",
"          +=-;%#         ",
"          >,'=;@#        ",
"          ),!~{;%#       ",
"          ]^&~/{;@#      ",
"          (~,_::<[%#     ",
"          }{~_|{123#     ",
"          4_~_{123#      ",
"          56/{123#       ",
"          789123#        ",
"          02~23#         ",
"          #a23#          ",
"          #a3#           ",
"          #b#            ",
"          ##             ",
"                         ",
"                         ",
"                         "};
