/* XPM */
static const char *print_xpm[]={
"32 32 159 2",
"Qt c None",
".# c #000000",
"ax c #008000",
"ay c #00ff00",
"## c #0e0e0e",
".d c #4a462e",
".Y c #565656",
".R c #7e721e",
"#o c #7e7e7e",
"#N c #7f7f7f",
"#W c #808080",
"#M c #818181",
"#L c #828282",
"#C c #838383",
"#K c #848484",
"#B c #858585",
"#A c #868686",
"#J c #878787",
"#u c #888888",
"#z c #898989",
"#t c #8a8a8a",
"#s c #8b8b8b",
"#y c #8c8c8c",
"#r c #8d8d8d",
"#n c #8e8e8e",
"#m c #8f8f8f",
"#q c #909090",
"#l c #919191",
"#k c #929292",
"#e c #939393",
"#d c #949494",
"#j c #959595",
"#c c #969696",
"#b c #979797",
".5 c #989898",
"#a c #999999",
".4 c #9a9a9a",
".3 c #9b9b9b",
".X c #9c9c9c",
".K c #9d9d9d",
"at c #a0a0a0",
"as c #a1a1a1",
"aA c #a2a2a2",
"aB c #a3a3a3",
"ar c #a4a4a4",
"aC c #a5a5a5",
"aq c #a6a6a6",
"az c #a7a7a7",
"ak c #a8a8a8",
"ap c #a9a9a9",
".N c #aaa65a",
"aj c #aaaaaa",
"aw c #ababab",
"ao c #acacac",
"ai c #adadad",
"an c #aeaeae",
"ah c #afafaf",
"av c #b0b0b0",
"ab c #b1b1b1",
"ag c #b2b2b2",
"aa c #b3b3b3",
"am c #b4b4b4",
"af c #b5b5b5",
"a# c #b6b6b6",
".Z c #b7996e",
"ae c #b7b7b7",
"au c #b8b8b8",
"a. c #b9b9b9",
"#4 c #bababa",
"#9 c #bbbbbb",
"#3 c #bcbcbc",
"ad c #bdbdbd",
"#8 c #bebebe",
"#2 c #bfbfbf",
"#7 c #c0c0c0",
"al c #c1c1c1",
"#1 c #c2c2c2",
"#V c #c3c3c3",
"#0 c #c4c4c4",
"#U c #c5c5c5",
"#6 c #c6c6c6",
"#Z c #c7c7c7",
"#T c #c8c8c8",
"#Y c #c9c9c9",
".O c #cac686",
"ac c #cacaca",
"#S c #cbcbcb",
"#I c #cccccc",
"#R c #cdcdcd",
"#H c #cecece",
"#X c #cfcfcf",
"#Q c #d0d0d0",
"#G c #d1d1d1",
"#P c #d2d2d2",
"#F c #d4d4d4",
"#x c #d5d5d5",
"#E c #d6d6d6",
"#w c #d7d7d7",
"#O c #d8d8d8",
"#D c #d9d9d9",
"#v c #dadada",
"#5 c #dbdbdb",
"#p c #dcdcdc",
".b c #e4ccaa",
".0 c #e8c08d",
"#h c #e9d9c1",
"#. c #eadac3",
"#g c #ebdbc5",
".9 c #ebdbc6",
"#f c #ebdcc7",
".2 c #ebddc8",
".W c #ecddc9",
".8 c #ecdeca",
".1 c #ecdecb",
".V c #ecdfcc",
".a c #ede0cc",
".Q c #ede0cd",
".7 c #ede0ce",
".6 c #ede1cf",
".D c #ede1d0",
".M c #eee2d1",
".w c #eee2d2",
".H c #eee3d2",
".o c #eee3d3",
".J c #eee4d4",
".C c #efe4d5",
".v c #efe5d7",
".n c #f0e6d9",
".L c #f0e7d9",
".B c #f0e7da",
".T c #f0e7db",
".U c #f0e8db",
".G c #f1e8dc",
".u c #f1e8dd",
".I c #f1e9dd",
".m c #f1e9de",
".A c #f1eadf",
".S c #f1eae0",
".F c #f2ebe1",
".t c #f2ebe2",
".l c #f2ece4",
".z c #f3ede4",
".h c #f3ede5",
".P c #f3eee6",
".s c #f3eee7",
".k c #f4efe9",
".E c #f4f0ea",
".g c #f4f0eb",
".r c #f5f1ec",
".y c #f5f2ed",
".j c #f5f2ef",
".f c #f6f4f0",
".q c #f6f4f1",
".x c #f6f4f2",
".i c #f7f5f4",
".p c #f7f6f5",
".e c #f7f7f6",
".c c #f7f7f7",
"#i c #ffffff",
"QtQtQtQtQtQtQtQtQtQtQtQtQtQtQt.#.#.#QtQtQtQtQtQtQtQtQtQtQtQtQtQt",
"QtQtQtQtQtQtQtQtQtQtQtQtQtQtQt.#.a.a.#.#.#QtQtQtQtQtQtQtQtQtQtQt",
"QtQtQtQtQtQtQtQtQtQtQtQtQtQt.#.b.c.c.c.c.a.#.#.#QtQtQtQtQtQtQtQt",
"QtQtQtQtQtQtQtQtQtQtQtQtQtQt.#.c.c.c.c.c.c.c.c.a.#.#.#QtQtQtQtQt",
"QtQtQtQtQtQtQtQtQtQtQtQt.d.#.c.c.c.c.c.c.c.c.e.f.g.h.a.#.#.#QtQt",
"QtQtQtQtQtQtQtQtQtQtQtQt.#.b.c.c.c.c.c.c.c.c.i.j.k.l.m.n.o.a.#Qt",
"QtQtQtQtQtQtQtQtQtQtQt.d.#.c.c.c.c.c.c.c.c.p.q.r.s.t.u.v.w.b.#Qt",
"QtQtQtQtQtQtQtQtQtQtQt.#.b.c.c.c.c.c.c.c.p.x.y.k.z.A.B.C.D.#QtQt",
"QtQtQtQtQtQtQtQtQtQt.d.#.q.i.e.c.c.c.e.i.q.y.E.h.F.G.v.H.b.#QtQt",
"QtQtQtQtQtQtQt.#.#.#.#.b.r.j.f.x.x.x.f.j.r.k.h.F.I.n.J.D.#.#.#.#",
"QtQtQtQtQtQt.#.K.K.K.#.z.s.k.g.r.r.r.g.k.s.z.F.I.L.C.M.b.#.N.O.#",
"QtQtQtQtQt.#.K.K.K.#.b.A.t.l.h.P.s.P.h.l.t.A.G.n.C.M.Q.#.R.N.#Qt",
"QtQtQtQt.#.K.K.K.K.#.v.B.u.m.S.F.F.F.S.m.u.B.v.J.M.Q.b.#.N.O.#Qt",
"QtQtQt.#.K.K.K.K.#.b.b.C.v.n.B.T.U.T.B.n.v.C.H.D.V.W.#.R.N.#QtQt",
"QtQt.#.K.K.K.K.X.Y.#.Z.0.b.b.C.C.C.C.C.o.w.D.Q.1.2.b.#.N.O.#QtQt",
"Qt.#.K.K.K.K.K.3.4.5.Y.#.#.Z.0.b.b.D.6.7.V.8.2.9#..#.R.N##QtQtQt",
".#.K.K.K.K.K.X.4#a#b#c#d#e.Y.#.#.Z.0.b.b#f#g#.#h.b.#.N.O.#.#.#Qt",
".##i#i#i.K.X.3#a.5#c#j#e#k#l#m#n.Y.#.#.Z.0.b.b.b.#.#.#.##o#o#o.#",
".##p#p#p#i#i#i.5#b#j#d#k#l#q#n#r#s#t#u.Y.#.#.Z.0.##o#o#o#o#o#o.#",
".##p#p#p#v#w#x#i#i#i#e#k#q#m#r#y#t#z#u#A#B#C.Y.#.##o#o#o#o#o.Y.#",
".##p#p#p#D#E#F#G#H#I#i#i#i#n#y#s#z#u#J#B#K#L#M#N#o#o#o#o#o.Y.Y.#",
".##p#p#v#O#x#P#Q#R#S#T#U#V#i#i#i#u#J#A#K#C#M#W#o#o#o#o#o.Y.Y.Y.#",
".##p#p#D#w#F#G#X#I#Y#Z#0#1#2#3#4#i#i#i#C#L#W#N#o#o#o#o.Y.Y.Y.Y.#",
".#.##5#O#EQt#Q#H#S#T#6#V#7#8#9a.a#aaab#i#i#i#o#o#o#o.Y.Y.Y.Y.Y.#",
"QtQt.#.#.##P#X#Rac#Z#U#1#2ad#4aeafagahaiajak#i#i#i.Y.Y.Y.Y.Y.Y.#",
"QtQtQtQtQt.#.#.##Y#6#Val#8#3a.a#amabanaoapaqarasat.Y.Y.Y.Y.Y.#Qt",
"QtQtQtQtQtQtQtQt.#.#.##7ad#4auafaaavaiawakaxayatar.Y.Y.Y.Y.#QtQt",
"QtQtQtQtQtQtQtQtQtQtQt.#.#.#aeamabahaoajazaraAatat.Y.Y.Y.#QtQtQt",
"QtQtQtQtQtQtQtQtQtQtQtQtQtQt.#.#.#anawakaqaBatatat.Y.Y.#QtQtQtQt",
"QtQtQtQtQtQtQtQtQtQtQtQtQtQtQtQtQt.#.#.#aCaAatatat.Y.#QtQtQtQtQt",
"QtQtQtQtQtQtQtQtQtQtQtQtQtQtQtQtQtQtQtQt.#.#.#atat.#QtQtQtQtQtQt",
"QtQtQtQtQtQtQtQtQtQtQtQtQtQtQtQtQtQtQtQtQtQtQt.#.#QtQtQtQtQtQtQt"};
