/* XPM */
static const char * spike_plus_xpm[] = {
"25 25 3 1",
" 	c None",
".	c #0C7206",
"+	c #646663",
"                         ",
"                         ",
"     ...                 ",
"     ...                 ",
"     ...                 ",
"     ...                 ",
"     ...                 ",
" ...........             ",
" ...........             ",
"     ...                 ",
"     ...                 ",
"     ...                 ",
"     ...                 ",
"                         ",
"                         ",
"                         ",
"                         ",
"                         ",
"           +++++++++++   ",
"           +++++++++++   ",
"           +++++++++++   ",
"                         ",
"                         ",
"                         ",
"                         "};
