/* XPM */
static const char *synch_xpm[]={
"48 44 788 2",
"Qt c None",
"hv c #000000",
"hP c #020202",
"km c #020203",
"kl c #020204",
"ie c #030304",
"k. c #030305",
"jZ c #040405",
"hp c #040505",
"dj c #060607",
".p c #060805",
"fw c #070706",
"a8 c #080907",
".0 c #090b08",
"bB c #0b0b0a",
"jY c #0b0b10",
"iF c #0c0c11",
"jR c #0d0d11",
"fT c #100f0f",
"#l c #10140e",
"#G c #131610",
"hO c #14141b",
".G c #141810",
"aG c #151713",
"#1 c #151812",
"gN c #161814",
"bE c #181a17",
".o c #191f14",
"j9 c #1a1925",
"co c #1d1f1c",
"j0 c #1e1d28",
"h7 c #1e1e27",
"bC c #20221e",
"hQ c #212128",
"ge c #212220",
"jQ c #222131",
"h6 c #22222c",
"jD c #232232",
"kk c #232233",
"hu c #242328",
"hm c #24232e",
"jk c #242333",
"kr c #242334",
"b. c #24311a",
"aI c #24321a",
"i3 c #262535",
"kn c #262536",
"kq c #272638",
"i4 c #272732",
"kp c #282638",
"h8 c #282734",
"k# c #282736",
"ko c #282738",
"gT c #282927",
"kj c #29283b",
"jE c #292935",
"gr c #292d26",
".Z c #293123",
"iG c #2a2934",
"if c #2a2a2a",
"ak c #2a3027",
"bP c #2a3520",
"#2 c #2a3a1c",
"jl c #2b2a36",
"id c #2b2a3a",
"h4 c #2b2b38",
"c. c #2b2f28",
".F c #2b3423",
"iE c #2c2b3e",
"i2 c #2d2b3e",
"ka c #2d2c3e",
"eI c #2e2e32",
"#n c #2e3b25",
"#I c #2e3c23",
"hH c #2f2e3d",
"jj c #2f2e43",
"i1 c #2f2f38",
"aH c #2f3828",
"bG c #2f3929",
"#3 c #2f4121",
"g5 c #303030",
".2 c #313d27",
"ht c #32323b",
".m c #324027",
".I c #324226",
"h9 c #333242",
".g c #333e2b",
"hq c #34333c",
".s c #344228",
"eH c #353833",
"c# c #353a32",
"fa c #363834",
"#4 c #363b35",
".n c #36432b",
"g8 c #373640",
"h3 c #373647",
"ji c #37364a",
"aJ c #373937",
"jX c #383650",
"gU c #383740",
".3 c #384e26",
".J c #384e27",
"gf c #393840",
"gy c #393841",
".t c #394e29",
"hF c #3a3948",
"g4 c #3a3a3e",
"eq c #3a3a40",
"bk c #3a3d35",
"dz c #3a3e36",
"bQ c #3a4432",
"bZ c #3b3f39",
"cy c #3b4234",
".h c #3b4e2b",
"hw c #3c3b44",
"f2 c #3c3b45",
"bo c #3c4437",
"dM c #3d3c41",
"gl c #3d3c46",
"hJ c #3d3c4f",
"ki c #3d3c58",
"cZ c #3d3d3e",
"cg c #3d3d40",
"fb c #3d3d43",
"bA c #3d4338",
"#L c #3d4635",
"jP c #3e3c58",
"fH c #3e3d49",
"jC c #3e3d59",
"j1 c #3f3e54",
".l c #3f5131",
"#M c #3f522f",
"#K c #3f552d",
"jS c #403f54",
"bD c #40443c",
"bj c #405034",
"kb c #413f5a",
"je c #414153",
"gF c #42414e",
"fS c #424540",
"jf c #434540",
".E c #435136",
"h5 c #444257",
".f c #444f3a",
"iD c #454748",
".r c #45503d",
".Y c #45533a",
"hI c #46455c",
"jz c #46455f",
".H c #464b42",
"hN c #474948",
"bp c #47543c",
"jF c #48475d",
"ic c #48494a",
"c8 c #48523f",
"#k c #48543d",
"h2 c #49485c",
"gx c #494c47",
"fM c #495043",
"#J c #496632",
"jm c #4a485e",
"#F c #4a5640",
"hE c #4b4a5d",
"i5 c #4b4a5e",
"d3 c #4b5244",
"fq c #4b5344",
".4 c #4b6633",
"iz c #4c4b63",
"fk c #4c4c5a",
"bl c #4c5148",
"#0 c #4c5743",
".K c #4c6735",
"fl c #4d4b53",
"iH c #4d4b5f",
"hS c #4d4c5d",
"cP c #4d4d4f",
"bm c #4d5148",
"bn c #4d5149",
"hk c #4e4c5f",
"hs c #4e4d5c",
"ih c #4e4d60",
"#H c #4e4e4d",
"ig c #4e4e51",
"bO c #4e4e55",
"e3 c #4e544a",
"aj c #4e5946",
".u c #4e6838",
"dW c #4f4e59",
"g3 c #4f4e60",
"ia c #4f4e68",
".v c #4f693a",
"cO c #505050",
"hR c #505052",
"bH c #505156",
"#7 c #505352",
"jW c #514f74",
"ef c #515158",
"jg c #515451",
"aF c #515b49",
"ev c #515c48",
"e4 c #515d49",
".i c #516a3c",
"j8 c #524f74",
"kh c #525075",
"b# c #525155",
"f1 c #525161",
".b c #525351",
".j c #526b3e",
"kg c #535175",
"dk c #535259",
"dt c #53525a",
"hr c #535261",
"kf c #535275",
".a c #535452",
"bf c #535557",
"aO c #535657",
"iX c #53565b",
"d2 c #535750",
"eU c #545356",
"ap c #545758",
"eu c #545951",
"a7 c #545e4c",
"fr c #545e4d",
".k c #546c40",
"ke c #555275",
"kd c #555376",
"g7 c #555657",
"bi c #556b42",
"bh c #556c41",
"kc c #565376",
"eT c #565563",
"fI c #565565",
"fp c #565953",
"f9 c #565f4f",
"ep c #575763",
"a9 c #575857",
".B c #576e45",
".c c #585858",
"c7 c #585957",
"bR c #585a57",
"b9 c #586151",
"aS c #586f46",
"j3 c #595678",
"j2 c #595778",
"cx c #595957",
"jh c #595b61",
".C c #596f47",
"aT c #596f48",
".D c #5a7049",
"eJ c #5b5b64",
"fx c #5b5b65",
"ca c #5b6255",
"aU c #5b7049",
"i. c #5c5a79",
"iw c #5c5b79",
"#5 c #5c5c60",
"aV c #5c714b",
"iv c #5d5b79",
"cn c #5d5c66",
"f3 c #5d5d5e",
"i0 c #5d615b",
"iu c #5e5c7a",
"dN c #5e5d66",
"ho c #5e615e",
"cd c #5e645a",
"aW c #5e724d",
".X c #5e724e",
"it c #5f5c7a",
"ir c #5f5d7a",
"al c #5f5e63",
"is c #5f5e7b",
"#m c #5f5f5e",
"ch c #5f5f66",
"iY c #5f645a",
"aX c #5f734f",
"cQ c #605f67",
"aK c #616166",
"bI c #616168",
"h1 c #62607b",
"ba c #626168",
"ee c #62665e",
"#j c #627453",
"#o c #628843",
"#6 c #636369",
"iC c #63675f",
"fv c #636760",
"bq c #637555",
"gw c #646760",
"gd c #646761",
"gS c #646861",
".5 c #648946",
"jA c #666490",
"b0 c #667659",
".L c #678a4a",
"cz c #69785c",
"ha c #6a697d",
"bY c #6a6a6a",
"hx c #6b6a80",
".w c #6b8d4f",
"jy c #6c6995",
"gE c #6c6a80",
"hb c #6c6b7f",
"dA c #6c7a61",
"ew c #6c7b60",
"jO c #6d6a9b",
"h# c #6d6c80",
"f0 c #6d6c81",
".1 c #6d6d6c",
"gm c #6d6d6e",
"d4 c #6d7b62",
"ex c #6d7b63",
"jB c #6e6b9b",
"fG c #6f6d81",
"bS c #6f6f6f",
"bg c #6f8f54",
"fj c #706f82",
"g9 c #717082",
"gV c #727183",
"fN c #727d68",
"bz c #727e68",
".A c #729059",
"aR c #73915a",
"gz c #747283",
"j4 c #75729e",
"gg c #757484",
"hl c #757575",
"gs c #757f6c",
"dV c #767585",
"fU c #767685",
"gO c #76806e",
"cI c #76816e",
"ds c #777785",
"g6 c #77806f",
"cJ c #788270",
"jT c #7976a0",
"i# c #7977a0",
"fc c #797885",
"cY c #797886",
"hn c #798172",
"cb c #7a8373",
"eg c #7b7a86",
"fm c #7b7b7c",
"hK c #7b8373",
"cc c #7b8375",
"ib c #7b8475",
".q c #7c7c7b",
".e c #7c7c7c",
"iA c #7c8476",
".W c #7c9765",
"jG c #7d7aa2",
"bN c #7d7c87",
"dl c #7d7c88",
"be c #7e7e88",
"cN c #7e8578",
"iq c #7f7da2",
"aN c #7f7f89",
"di c #7f8679",
"iZ c #7f867a",
"jn c #807da4",
"dL c #80867b",
"aY c #809a6c",
"ao c #81818a",
"eG c #81877b",
"#i c #819a6d",
"am c #82828a",
"f# c #82877d",
"fR c #82887e",
"i6 c #8380a4",
"h0 c #8381a4",
"br c #849c72",
".# c #858584",
"#p c #85b65e",
"iI c #8683a6",
"#E c #869d73",
"hD c #8785a5",
"fL c #878786",
"#q c #88b861",
"ii c #8986a7",
"dX c #898989",
"#Z c #899f78",
".6 c #89b762",
"hj c #8a88a7",
"#r c #8ab864",
"b1 c #8ba079",
".7 c #8bb865",
"#N c #8bb866",
"hT c #8c89a8",
".M c #8cb966",
"g2 c #8d8ba9",
"ai c #8da17c",
"#s c #8db967",
".8 c #8eba68",
".N c #8eba69",
"c9 c #8fa380",
"#O c #8fbb6a",
"#t c #8fbb6b",
"hc c #908faa",
"bX c #90908f",
"aE c #90a380",
".9 c #90bb6c",
"cp c #919190",
".O c #91bc6c",
".x c #91bc6d",
"bT c #929292",
"#u c #92bc6e",
"aP c #92bd6e",
"jN c #938fcf",
"fZ c #9391ab",
"dy c #939393",
"a6 c #93a585",
"#. c #93bd6f",
".P c #93bd70",
"j7 c #9490cf",
"jM c #9490d0",
"h. c #9493ac",
"f4 c #949495",
"ey c #94a585",
".y c #94be71",
"aQ c #94be72",
"jL c #9591d0",
"## c #95be72",
"jV c #9692d1",
"jK c #9693d1",
"d1 c #969695",
".Q c #96bf73",
".z c #96bf74",
"jU c #9793d1",
"eS c #9796ad",
"cf c #979797",
"fs c #97a689",
"#v c #97c075",
"jx c #9894d1",
"j6 c #9894d2",
"b8 c #98a78c",
"#a c #98c076",
".R c #98c077",
"jw c #9995d2",
"j5 c #9996d2",
"#w c #99c178",
"jv c #9a96d2",
"#b c #9ac179",
".S c #9ac27a",
"jd c #9b97d3",
"ju c #9b98d3",
"eo c #9b99af",
"fo c #9b9b9a",
"g. c #9ba990",
"cH c #9baa90",
"#8 c #9bc27a",
"#P c #9bc27b",
"jc c #9c98d3",
".T c #9cc37c",
"iW c #9d99d4",
"jJ c #9d9ad4",
"aq c #9dc37c",
"#c c #9dc37d",
"jb c #9e9ad4",
"iV c #9e9bd4",
"fy c #9e9db0",
"er c #9e9e9e",
"#Q c #9ec47e",
"#d c #9ec47f",
"jI c #9f9bd4",
"jt c #9f9bd5",
"ja c #9f9cd5",
"gG c #9f9fa0",
"ar c #9fc480",
"iy c #a09cd5",
"j# c #a09dd5",
"eK c #a09fb1",
"hG c #a0a0a0",
"#9 c #a0c581",
"#R c #a0c582",
".U c #a0c681",
"#x c #a0c682",
"ix c #a19dd5",
"js c #a19ed5",
"cK c #a1ad98",
"as c #a1c683",
"iU c #a29ed6",
"jr c #a29fd6",
"a. c #a2c684",
"#e c #a2c783",
".V c #a2c784",
"#y c #a2c785",
"iT c #a39fd6",
"jH c #a3a0d6",
"#S c #a3c785",
"jq c #a4a0d6",
"j. c #a4a0d7",
"iS c #a4a1d7",
"cm c #a4a2b3",
"dO c #a4a3b3",
"at c #a4c787",
"#f c #a4c887",
"jp c #a5a1d7",
"iR c #a5a2d7",
"a# c #a5c887",
"jo c #a6a2d7",
"iQ c #a6a3d8",
"cR c #a6a5b3",
"#z c #a6c989",
"aa c #a6c98a",
"iP c #a7a4d8",
"au c #a7c98a",
"#g c #a7ca8a",
"i9 c #a8a5d9",
"#T c #a8cb8c",
"iO c #a9a6d9",
"ci c #a9a7b5",
"#A c #a9cb8c",
"ab c #a9cb8d",
"#h c #a9cc8d",
"i8 c #aaa6d9",
"iN c #aaa7d9",
"bJ c #aaa9b6",
"bb c #aaaab6",
"ed c #aab2a2",
"av c #aacb8d",
"#U c #aacc8f",
"iL c #aba8d9",
"iM c #aba8da",
"iB c #abb3a4",
"gR c #abb3a5",
"aw c #abcc90",
"#B c #abcd90",
"ip c #aca8d9",
"iK c #aca9da",
"an c #acabb6",
"fu c #acb3a5",
"gv c #acb3a6",
"io c #adaada",
"i7 c #adaadb",
"gn c #adadad",
"gc c #adb3a7",
"ac c #adcd91",
"aZ c #adcd92",
"#V c #adce92",
"in c #aeabda",
"ce c #aeaeae",
"#C c #aece93",
"im c #afacdb",
"ax c #afce94",
"ad c #afcf95",
"hZ c #b0addb",
"iJ c #b0addc",
"#W c #b0cf96",
"#D c #b0d096",
"il c #b1aedc",
"ay c #b1d097",
"hY c #b2afdc",
"ik c #b2afdd",
"ae c #b2d098",
"#X c #b2d199",
"a0 c #b3d19a",
"ij c #b4b1dd",
"hX c #b4b1de",
".d c #b4b4b4",
"az c #b4d19b",
"af c #b4d29b",
"hW c #b5b2de",
"hC c #b5b3dd",
"#Y c #b5d29c",
"a1 c #b5d39d",
"hV c #b6b3df",
"hB c #b6b4df",
"aA c #b6d39e",
"hU c #b7b5df",
"ag c #b7d39f",
"bs c #b7d4a0",
"hA c #b8b5df",
"aB c #b8d4a1",
"hi c #b9b6e0",
"ah c #b9d5a2",
"hz c #bab7e0",
"hh c #bab8e0",
"e2 c #bababa",
"bt c #bad5a3",
"a2 c #bad6a4",
"hy c #bbb8e1",
"hg c #bbb9e1",
"aC c #bbd6a5",
"hf c #bcbae1",
"b2 c #bcd6a6",
"bu c #bcd7a6",
"g1 c #bdbae1",
"a3 c #bdd7a7",
"cA c #bdd8a8",
"he c #bebbe2",
"g0 c #bebce2",
"bF c #bebebe",
"aD c #bed8a8",
"b3 c #bed8a9",
"hd c #bfbde2",
"gD c #bfbde3",
"bv c #bfd8aa",
"a4 c #bfd9ab",
"gZ c #c0bee3",
"bW c #c0c0bf",
"cB c #c0d9ac",
"gC c #c1bee3",
"gY c #c1bfe4",
"b4 c #c1d9ac",
"bw c #c1daad",
"gB c #c2bfe4",
"gk c #c2c0e4",
"bV c #c2c2c1",
"bU c #c2c2c2",
"a5 c #c2daae",
"cC c #c2daaf",
"gX c #c3c0e4",
"gj c #c3c1e4",
"c6 c #c3c3c2",
"b5 c #c3dbb0",
"gW c #c4c2e4",
"gi c #c4c2e5",
"cw c #c4c4c4",
"dB c #c4dbb0",
"bx c #c4dbb1",
"d. c #c4dcb1",
"fY c #c5c2e5",
"fF c #c5c3e5",
"cv c #c5c5c5",
"cD c #c5dcb2",
"d5 c #c5dcb3",
"gh c #c6c3e5",
"fX c #c6c4e5",
"fE c #c6c4e6",
"cu c #c6c6c6",
"b6 c #c6dcb3",
"by c #c6ddb4",
"fD c #c7c5e6",
"ct c #c7c7c7",
"e5 c #c7dcb5",
"cE c #c7ddb5",
"gA c #c8c5e6",
"fi c #c8c6e6",
"fC c #c8c6e7",
"cs c #c8c8c8",
"b7 c #c8deb6",
"e6 c #c8deb7",
"fh c #c9c7e7",
"c5 c #c9c9c9",
"dC c #c9deb7",
"d# c #c9dfb8",
"fg c #cac8e7",
"fW c #cac9e8",
"cr c #cacac9",
"cF c #cadfb9",
"eR c #cbc9e8",
"cq c #cbcbca",
"d6 c #cbdfba",
"dD c #cbe0ba",
"ff c #cccae8",
"eQ c #cccbe8",
"c4 c #cccccb",
"da c #cce0bb",
"ez c #cce0bc",
"cG c #cce1bc",
"fV c #cdcbe8",
"fB c #cdcbe9",
"fe c #cdcce9",
"c3 c #cdcdcc",
"d7 c #cde1bd",
"eP c #cecce9",
"c2 c #cececd",
"dx c #cecece",
"dE c #cee1be",
"db c #cee2bf",
"en c #cfcde9",
"fA c #cfceea",
"d0 c #cfcfcf",
"eA c #cfe2bf",
"em c #d0ceea",
"c1 c #d0d0d0",
"d8 c #d0e2c0",
"dF c #d0e3c1",
"fz c #d1cfe9",
"fd c #d1cfea",
"eO c #d1d0ea",
"el c #d1d0eb",
"c0 c #d1d1d1",
"dc c #d1e3c2",
"eB c #d1e3c3",
"dU c #d2d0eb",
"eN c #d2d1eb",
"dw c #d2d2d2",
"g# c #d2e3c3",
"d9 c #d2e4c4",
"dT c #d3d1eb",
"eM c #d3d2eb",
"dG c #d3e4c5",
"dd c #d3e5c5",
"dS c #d4d2ec",
"dr c #d4d3ec",
"e1 c #d4d4d3",
"dv c #d4d4d4",
"e7 c #d4e5c5",
"eC c #d4e5c6",
"ek c #d5d3ec",
"dq c #d5d4ec",
"fJ c #d5d5d4",
"gM c #d5d5d5",
"e. c #d5e5c7",
"dH c #d5e6c8",
"eL c #d6d4ec",
"ej c #d6d4ed",
"dR c #d6d5ed",
"e0 c #d6d6d5",
"du c #d6d6d6",
"de c #d6e6c9",
"cX c #d7d5ed",
"ei c #d7d6ec",
"dQ c #d7d6ed",
"et c #d7d7d6",
"eD c #d7e6ca",
"e# c #d7e7ca",
"dp c #d8d6ed",
"cW c #d8d7ed",
"eh c #d8d7ee",
"eZ c #d8d8d7",
"fn c #d8d8d8",
"dI c #d8e7cb",
"df c #d8e8cc",
"do c #d9d7ee",
"cV c #d9d8ee",
"dZ c #d9d9d8",
"e8 c #d9e8cc",
"cL c #d9e8cd",
"dP c #dad8ed",
"cU c #dad9ee",
"eY c #dadada",
"ea c #dae8ce",
"gP c #dae9cf",
"cl c #dbd9ef",
"dn c #dbdaef",
"dY c #dbdbda",
"dm c #dbdbee",
"dg c #dbe9cf",
"gt c #dbe9d0",
"cT c #dcdaef",
"ck c #dcdbef",
"eX c #dcdcdc",
"cM c #dce9d0",
"ga c #dcead0",
"eb c #dcead1",
"cS c #dddbf0",
"bM c #dddcf0",
"f8 c #dddddc",
"es c #dddddd",
"dJ c #ddead2",
"hL c #ddebd3",
"bL c #deddf0",
"eW c #dedede",
"dh c #deebd3",
"eE c #deebd4",
"cj c #dfdef1",
"fK c #dfdfde",
"f7 c #dfdfdf",
"ec c #dfebd4",
"fO c #dfebd5",
"gQ c #dfecd5",
"bK c #e0def1",
"bd c #e0dff1",
"eV c #e0e0e0",
"dK c #e0ecd5",
"e9 c #e0ecd6",
"bc c #e1e0f1",
"f6 c #e1e1e1",
"gb c #e1ecd7",
"eF c #e1edd7",
"fP c #e1edd8",
"aM c #e2e1f2",
"ft c #e2edd9",
"hM c #e2eed9",
"f5 c #e3e3e3",
"gu c #e3eed9",
"f. c #e3eeda",
"aL c #e4e3f3",
"fQ c #e4eedb",
"gq c #e5e5e5",
"gL c #e6e6e5",
"gp c #e7e7e7",
"gK c #e8e8e7",
"go c #e9e9e9",
"gJ c #eaeaea",
"gI c #ececec",
"gH c #eeeeee",
"QtQtQtQtQtQtQtQtQtQtQtQtQtQtQtQtQtQtQtQtQtQtQtQtQtQtQtQtQtQtQtQtQtQtQtQtQtQtQtQtQtQtQtQtQtQtQtQt",
"QtQtQtQtQtQtQtQtQtQtQtQtQtQtQtQtQtQtQtQtQtQtQtQtQtQtQtQtQtQtQtQtQtQtQtQtQtQtQtQtQtQtQtQtQtQtQtQt",
"QtQtQtQtQtQtQtQtQtQtQtQtQtQtQtQtQtQtQtQtQtQtQtQtQtQtQtQtQtQtQtQtQtQtQtQtQtQtQtQtQtQtQtQtQtQtQtQt",
"QtQtQtQtQtQtQtQtQtQtQtQtQtQtQtQtQtQtQtQtQtQtQtQtQtQtQtQtQtQtQtQtQtQtQtQtQtQtQtQtQtQtQtQtQtQtQtQt",
"QtQtQtQtQtQtQtQtQtQtQtQtQtQtQtQtQtQtQtQtQtQtQtQtQtQtQtQtQtQtQtQtQtQtQtQtQtQtQtQtQtQtQtQtQtQtQtQt",
"QtQtQtQtQtQtQtQtQtQtQtQtQtQtQtQtQtQtQt.#.a.b.b.c.cQtQtQtQtQtQtQtQtQtQtQtQtQtQtQtQtQtQtQtQtQtQtQt",
"QtQtQtQtQtQtQtQtQtQtQtQtQtQtQt.d.e.b.f.g.h.i.j.k.l.m.n.o.pQtQtQtQtQtQtQtQtQtQtQtQtQtQtQtQtQtQtQt",
"QtQtQtQtQtQtQtQtQtQtQtQtQtQt.q.r.s.t.u.v.w.x.y.z.A.B.C.D.E.F.GQtQtQtQtQtQtQtQtQtQtQtQtQtQtQtQtQt",
"QtQtQtQtQtQtQtQtQtQtQtQtQt.H.I.J.K.L.M.N.O.P.Q.R.S.T.U.V.W.X.Y.Z.0QtQtQtQtQtQtQtQtQtQtQtQtQtQtQt",
"QtQtQtQtQtQtQtQtQtQtQt.1.2.3.4.5.6.7.8.9#.###a#b#c#d#e#f#g#h#i#j#k#lQtQtQtQtQtQtQtQtQtQtQtQtQtQt",
"QtQtQtQtQtQtQtQtQtQt#m#n.3#o#p#q#r#s#t#u.y#v#w.T#d#x#y#z#A#B#C#D#E#F#GQtQtQtQtQtQtQtQtQtQtQtQtQt",
"QtQtQtQtQtQtQtQtQt#H#I.3#J#K#L#M#N#O.x.y.z#w#P#Q#R#S#f#T#U#V#W#X#Y#Z#0#1QtQtQtQtQtQtQtQtQtQtQtQt",
"QtQtQtQtQtQtQtQtQt#I#2#3#4#5#6#7.N.O.P.Q.R#8#c#9a.a#aaabacadaeafagahaiaj#1QtQtQtQtQtQtQtQtQtQtQt",
"QtQtQtQtQtQtQtQt#I#2akalamanaoap.9#.###a#baqarasatauavawaxayazaAaBaCaDaEaFaGQtQtQtQtQtQtQtQtQtQt",
"QtQtQtQtQtQtQtaHaIaJaKanaLaMaNaOaPaQ#vaRaSaTaUaVaWaXaYaZada0a1aBa2a3a4a5a6a7a8QtQtQtQtQtQtQtQtQt",
"QtQtQtQtQtQta9b.b#babbaMbcbdbebfbgbhbibjbkblbmbnbnbobpbqbr#YbsbtbubvbwbxbybzbAQtQtbBbCbDbEQtQtQt",
"QtQtQtQtQtbFbGbHbIbJbcbKbLbMbNbObPbQbRbSbTbUbUbVbWbXbYbZ#Fb0b1b2b3b4b5b6b7b8b9c.c#cacbcccdQtQtQt",
"QtQtQtQtcecfcgchcicjbLbMckclcmcncocpcqcrcsctcucvcwcwbVcpcxcyczcAcBcCcDcEcFcGcHcIcJcKcLcMcNQtQtQt",
"QtQtQtQtcOcPcQcRbLcScTcUcVcWcXcYcZc0c1c1c2c3c4c5cscucvcwc6c7c8c9a5d.cEd#dadbdcdddedfdgdhdiQtQtQt",
"QtQtQtQtdjdkdldmdncUdodpcXdqdrdsdtdudvdvdwc1dxc3c4crcsctcudydzdAdBbydCdDdEdFdGdHdIdgdJdKdLQtQtQt",
"QtQtQtQtdMdNdOdPdodQdRdqdSdTdUdVdWdXdYdZdudvdwc0d0dxc4d1#md2d3d4d5b7d6d7d8d9e.e#eaebecedeeQtQtQt",
"QtQtQtQtefegeheiejekdSdTelemeneoepeqeresdYdZetdvdwc0cueuevewexeybycFezeAeBeCeDcLcMeEeFeGeHQtQtQt",
"QtQtQteIeJeKeLekeMeNeOemenePeQeReSeTeUeVeWeXeYeZe0e1e2e3e4d4a6e5e6dadbdce7dee8dgdhe9f.f#faQtQtQt",
"QtQtQtfbfceMeMdUfdemenfeffeRfgfhfifjfkflfmeWeXeYfndue1fofpfqfrfscFdEdFdGdHdIdgdJdKftfufvfwQtQtQt",
"QtQtQtfxfyfdfzfAePfBffeRfgfCfDfEfFfGfHfHfIfJfKeXeYfndudvdwfLfMfNezd8d9e.e#eaebfOfPfQfRfSQtQtQtQt",
"QtQtfTfUemePfVfBfffWfhfCfDfXfYfZf0f1f2f3f4f5f6f7f8dYfnQtQtQtQtf9g.g#eCeDcLgaeEgbf.gcgdgeQtQtQtQt",
"QtQtgfggePfVfgfgfhfifDghgigjgkf0glgmgngogpgqf5f6f7QtQtQtQtQtQtgrgse7dee8gtdhe9gugvgwgxQtQtQtQtQt",
"QtQtgygzeRfgfigAfEfFgigjgBgCgDgEgFgGgHgIgJgKgLgMQtQtQtQtQtQtQtgNgOdHdIgPdJgQftgRfvgSgTQtQtQtQtQt",
"QtQtgUgVfCfDfFgWgigXgYgZgDg0g1g2g3g4.dgHgIQtQtQtQtQtQtQtQtQtQtg5g6e#eaebecfPfQfRgdg7QtQtQtQtQtQt",
"QtQtg8g9h.fGh#hahbhchdhehfhghhhihjhkg4hlQtQtQtQtQtQtQtQtQtQt.chmhncLcMeEeFf.gcgdhohpQtQtQtQtQtQt",
"QtQthqhrhshthuhvhwhxhfhyhzhihAhBhChDhEhFhGQtQtQtQtQtQtQtQthHhIhJhKdghLe9hMgvfvhNhOQtQtQtQtQtQtQt",
"QtQthPhQQtQtQthvhRhShThihUhVhWhXhYhZh0h1h2h3h4h5h6h7h8h9hIi.i#iaibdJgQftgRfvicidieQtQtQtQtQtQtQt",
"QtQtQtQtQtQtQtQtifigihiihWijikiliminioipiqirisitiuiviwi.i#ixiyiziAecfPiBiCiDiEiFQtQtQtQtQtQtQtQt",
"QtQtQtQtQtQtQtQthvhviGiHiIiliJimiKiLiMiNiOiPiQiRiSiTiUixiyiViWiXiYiZeGi0i1i2i3QtQtQtQtQtQtQtQtQt",
"QtQtQtQtQtQtQtQtQthvhvi4i5i6i7iKiMi8i9iPiQiRj.iTiUj#jajbiWjcjdjejfjgjhjijjjkQtQtQtQtQtQtQtQtQtQt",
"QtQtQtQtQtQtQtQtQtQtQtQtjljmjniOi9iPjojpjqjrjsiyjtjbiWjujvjwjxjyjzjAjBjCjDQtQtQtQtQtQtQtQtQtQtQt",
"QtQtQtQtQtQtQtQtQtQtQtQtQtjEjFjGjoiSjHjrixiyjIjJjcjdjvjwjxjKjLjMjNjOjPjQQtQtQtQtQtQtQtQtQtQtQtQt",
"QtQtQtQtQtQtQtQtQtQtQtQtQtQtjRjSi.jTixiyiViWjcjdjvjwjUjVjLjMjNjOjWjXjYQtQtQtQtQtQtQtQtQtQtQtQtQt",
"QtQtQtQtQtQtQtQtQtQtQtQtQtQtQtjZj0j1j2j3j4jdj5j6jUjVjLj7jOj8jWjXj9k.QtQtQtQtQtQtQtQtQtQtQtQtQtQt",
"QtQtQtQtQtQtQtQtQtQtQtQtQtQtQtQtQtiek#kakbkckdkekfkgkhj8kikjkkklQtQtQtQtQtQtQtQtQtQtQtQtQtQtQtQt",
"QtQtQtQtQtQtQtQtQtQtQtQtQtQtQtQtQtQtQtQtkmkmknkokpkqkrkmkmQtQtQtQtQtQtQtQtQtQtQtQtQtQtQtQtQtQtQt",
"QtQtQtQtQtQtQtQtQtQtQtQtQtQtQtQtQtQtQtQtQtQtQtQtQtQtQtQtQtQtQtQtQtQtQtQtQtQtQtQtQtQtQtQtQtQtQtQt",
"QtQtQtQtQtQtQtQtQtQtQtQtQtQtQtQtQtQtQtQtQtQtQtQtQtQtQtQtQtQtQtQtQtQtQtQtQtQtQtQtQtQtQtQtQtQtQtQt",
"QtQtQtQtQtQtQtQtQtQtQtQtQtQtQtQtQtQtQtQtQtQtQtQtQtQtQtQtQtQtQtQtQtQtQtQtQtQtQtQtQtQtQtQtQtQtQtQt"};
