/* XPM */
static const char * synch_xpm[] = {
"25 25 9 1",
" 	c None",
".	c #BFBFBF",
"+	c #999999",
"@	c #7F7F7F",
"#	c #666666",
"$	c #3F3F3F",
"%	c #333333",
"&	c #0F0F0F",
"*	c #000000",
"                         ",
"                         ",
"                         ",
"                  .&     ",
"                  .*&    ",
"                  .**&   ",
"  .@@@@@@@@@@@@@@@#***&  ",
"  @********************& ",
"  +$$$$$$$$$$$$$$$%****+ ",
"                  .***+  ",
"                  .**+   ",
"                  .*+    ",
"                  .+     ",
"                         ",
"                  .&     ",
"                  .*&    ",
"                  .**&   ",
"  .@@@@@@@@@@@@@@@#***&  ",
"  @********************& ",
"  +$$$$$$$$$$$$$$$%****+ ",
"                  .***+  ",
"                  .**+   ",
"                  .*+    ",
"                  .+     ",
"                         "};
