/* XPM */
static const char *add_channel_xpm[]={
"32 32 3 1",
". c None",
"# c #800000",
"a c #ff0000",
"................................",
"................................",
"................................",
".............#..................",
".............#..................",
".............#..................",
".............#..................",
"............###.................",
"............###.................",
"............###.................",
"........#...###..#..............",
"........#...###..#...#..........",
"........#..####.###..#..........",
"........##.####.###..#..........",
"........##.####.###..##.........",
".......###.####.###.####........",
".....##########.###.#######.....",
".......#.####.#.######.#........",
".........###..########..........",
".........###..####.##....a......",
".........###..####.##...aaa.....",
".........###..####..#...aaa.....",
"..........#....#.#......aaa.....",
"..........#....#.#...aaaaaaaaa..",
"..........#....#....aaaaaaaaaaa.",
"...............#.....aaaaaaaaa..",
"...............#........aaa.....",
"........................aaa.....",
"........................aaa.....",
".........................a......",
"................................",
"................................"};
