/* XPM */
static const char * plus_xpm[] = {
"25 25 3 1",
" 	c None",
".	c #720211",
"+	c #000000",
"                         ",
"                         ",
"    ..   .      .        ",
"    ..   .     .         ",
"   . .   ..    .         ",
"   . .   ..   ..         ",
"  .  .   ..   .          ",
"  .  .  . ..  .          ",
" ..  .  .  . ..          ",
" .   .  .  . .           ",
"..   .  .  ...++         ",
".    . ..   . ++         ",
"     . .    . ++         ",
"     . .      ++         ",
"     ...      ++         ",
"      ..      ++         ",
"      .. +++++++++++++   ",
"      .  +++++++++++++   ",
"      .       ++         ",
"      .       ++         ",
"              ++         ",
"              ++         ",
"              ++         ",
"              ++         ",
"                         "};
