/* XPM */
static const char * spike_minus_xpm[] = {
"25 25 3 1",
" 	c None",
".	c #646663",
"+	c #0C7206",
"                         ",
"                         ",
"     ...                 ",
"     ...                 ",
"     ...                 ",
"     ...                 ",
"     ...                 ",
" ...........             ",
" ...........             ",
"     ...                 ",
"     ...                 ",
"     ...                 ",
"     ...                 ",
"                         ",
"                         ",
"                         ",
"                         ",
"                         ",
"           +++++++++++   ",
"           +++++++++++   ",
"           +++++++++++   ",
"                         ",
"                         ",
"                         ",
"                         "};
