/* XPM */
static const char *timestamp_xpm[] = {
"25 25 3 1",
" 	c None",
".	c #FFFFCC",
"+	c #000000",
"                         ",
"        +++++++++        ",
"      +++++++++++++      ",
"     ++++.......++++     ",
"    ++++...++....++++    ",
"   +++.....++......+++   ",
"  +++......++.......+++  ",
" +++.......++........+++ ",
" +++.......++........+++ ",
" ++........++.........++ ",
" ++........++.........++ ",
" ++........+++++++++..++ ",
" ++........+++++++++..++ ",
" ++...................++ ",
" ++...................++ ",
" ++...................++ ",
" +++.................+++ ",
" +++.................+++ ",
"  +++...............+++  ",
"   +++.............+++   ",
"    ++++.........++++    ",
"     ++++.......++++     ",
"      +++++++++++++      ",
"        +++++++++        ",
"                         "};
