/* XPM */
static const char *timestamp_xpm[]={
"32 32 146 2",
"Qt c None",
"#k c #000000",
".# c #020204",
"ap c #020604",
"an c #020e04",
".G c #022604",
"ao c #060e04",
"am c #061204",
".r c #061a04",
".B c #0a2e04",
"aj c #0e360c",
"ai c #123e14",
"ah c #124614",
"ad c #141618",
"#M c #161718",
"#w c #161818",
"ag c #167e0c",
"#v c #181818",
".z c #2a7e14",
".A c #2a860c",
".o c #2a9214",
".n c #2a9614",
".j c #2e5a2c",
".h c #2e8e24",
".p c #2e9214",
".q c #2e9614",
".m c #2e9a14",
".l c #2e9e1c",
".i c #326e34",
"ak c #365234",
"ab c #369e2c",
"af c #36a214",
".K c #3a5a3c",
"a. c #3a9e2c",
"#7 c #3aa22c",
".g c #3ab62c",
".F c #3e6234",
"#X c #3ea22c",
"#S c #3ea62c",
"#N c #3eaa2c",
".f c #3eba2c",
"#8 c #42363c",
".k c #427e3c",
"#z c #42ae2c",
"#s c #42b22c",
".e c #42be2c",
"al c #464a4c",
"#l c #46b634",
".d c #46c234",
".c c #46c634",
"#e c #4aba34",
".a c #4abe38",
".b c #4aca3c",
".V c #4ec23c",
".L c #4ec63c",
".2 c #523a2c",
"## c #525254",
".H c #52ca44",
".X c #564644",
".S c #565654",
".I c #5e5e5c",
".Y c #66563c",
"#d c #666664",
".5 c #6a6a6c",
".9 c #6e6664",
"ae c #6e6e74",
"#B c #757575",
"#1 c #7e7a7c",
".w c #7e7e7c",
"#j c #808080",
"ac c #858787",
".E c #868684",
"#y c #868787",
"#x c #878787",
".3 c #8a8284",
"a# c #8a8a90",
"#. c #9a9ea4",
".1 c #9e968c",
".Q c #9e9a9c",
"#p c #a0a0a4",
".s c #a2d29c",
"#b c #aaaaaa",
"#Z c #aaaaf4",
"#g c #aeaeee",
".D c #b2b2b2",
"#f c #b2b6b4",
"#Y c #b6b6fc",
".4 c #b6babc",
"#c c #bababc",
"#D c #babaf8",
"#0 c #babec0",
".x c #beb6bc",
"#t c #c00000",
"#o c #c0c0c0",
"#H c #c2c2fc",
"#J c #c60e0c",
"#R c #c9e5ee",
".6 c #cac6c4",
".7 c #cacacc",
".Z c #cec6bc",
"#i c #cecefc",
".U c #d6d6d9",
"#m c #dadaf8",
"#a c #dedede",
"#C c #dedefc",
".8 c #e2dedc",
".y c #e2e2e4",
"#n c #e2e2fc",
"#h c #e6e6fc",
".0 c #eaeaec",
"#4 c #ebfbff",
"aa c #ecfbff",
"#9 c #edfbff",
".R c #eeeef8",
"#5 c #eefbff",
"#6 c #effbff",
"#W c #f0fbff",
"#U c #f1fbff",
".P c #f2f2f4",
"#Q c #f2fbfe",
"#T c #f3fbfe",
"#P c #f3fcfe",
"#L c #f4fcfe",
"#G c #f5fcfe",
".C c #f6f6f5",
"#K c #f6fcfe",
".v c #f6fefc",
"#3 c #f7fcfe",
"#2 c #f8fcfd",
"#V c #f9fdfd",
".M c #faaeac",
".J c #faf6fc",
".T c #fafafc",
"#A c #fbfdfd",
"#F c #fbfefd",
"#O c #fcfefd",
"#E c #fdfefd",
".O c #febebc",
".N c #fedadc",
".W c #fef2f1",
".u c #fefaf4",
".t c #fefefc",
"#u c #ff0000",
"#r c #ffc0c0",
"#I c #fffffd",
"#q c #ffffff",
"Qt.#.#.#.#.#.#.#.#.#.#.#.#.#.#.#.#.#.#.#.#.#.#.#.#.#.#.#.#.#QtQt",
".#.a.b.c.d.e.e.f.f.g.g.g.g.h.i.j.k.l.l.l.l.m.m.n.o.o.o.o.p.q.r.#",
".#.c.s.t.t.t.t.t.t.t.t.u.v.w.x.y.w.t.t.t.t.t.t.t.t.t.u.u.z.A.B.#",
".#.b.t.t.t.t.t.t.t.t.t.t.t.C.D.E.t.t.t.t.t.t.t.t.t.t.t.t.t.F.G.#",
".#.H.t.t.t.t.t.t.t.t.t.t.t.v.D.I.J.t.t.t.t.t.t.t.t.t.t.t.t.K.G.#",
".#.L.t.M.N.O.t.t.t.t.t.P.Q.R.D.S.T.Q.U.t.t.t.t.t.t.M.N.O.t.K.G.#",
".#.V.t.M.W.M.t.t.t.t.t.Q.X.Y.Z.0.1.2.3.t.t.t.t.t.t.M.W.M.t.K.G.#",
".#.V.t.t.t.t.t.t.t.t.t.4.5.6.D.7.8.9.4.t.t.t.t.t.t.t.t.t.t.K.G.#",
".#.a.t.t.t.t.t.t.t.t.t.T.y.t#.###a.T.y.t.t.t.t.t.t.t.t.t.t.K.G.#",
".#.a.t#b#b#b#b#b#b#b#b.t.t.t#c#d.t.t.t.t#b#b#b#b#b#b#b#b.t.K.G.#",
".##e.t.t.t.t.t.t.t.t.t.t.t.t#f#d.t.t.t.t.t.t.t.t.t.t.t.t.t.K.G.#",
".##e.t#g#h#i.t.t.t.t.t.t.t.t#f#d.t.t.t.t#j#k#k#k#j.t.t.t.t.K.G.#",
".##l.t#m.T#n.t.t.t.t.t.t.t.t#o#k#o.t.t.t#k#j#p#q#k.t.t.t#o#k.G.#",
".##l.t.t.t.t.t.t.t.t.t.t.t#o#k#r#k#o#o#k#k#k#k#k#k#k#o#o#k#j#k#k",
".##s.t.t.t.t.t.t.t.t.t.t.t#k#t#u#r#k#v.I#j#j#j#j#j.I#w#k#j#p#q#k",
".##s.t#b#b#b#b#b#b#b#b.t.t#o#k#t#k.I#x#j#o#o#o#o#o#j#y.I#k#q#k#k",
".##z.t.t.t.t.t.t.t.t.t.t.t.t#o#k.I#j#o#o#A#A#B#q#q#o#o#j.I#k.G.#",
".##z.t#g#C#D.t.t.t.t.t.t.t.t#k.I#j#o#E#B#F#A#b#q#q#B#G#o#j.I#k#k",
".##z.t#D#h#H.t.t.t.t.t.t.t#o#v#x#o#E#I#E#b#A#j#q#J#K#L#L#o#y#M#k",
".##N.t.t.t.t.t.t.t.t.t.t.t#j.I#j#o#B#E#I#O#A#j#q#J#L#P#B#o#j.I#k",
".##N.t.t.t.t.t.t.t.t.t.t.t#k#j#o#A#F#b#O#I#O#j#J#L#P#b#Q#R#o#j#k",
".##S.t#b#b#b#b#b#b#b#b.t.t#k#j#o#A#A#A#A#O#I#j#J#T#Q#U#U#R#o#j#k",
".##S.t.t.t.t.t.t.t.t.t.t.t#k#j#o#B#b#V#V#V#V#J#W#W#W#W#b#B#o#j#k",
".##X.t#Y#h#Z.t.t.t.t.t#0#1#k#j#o#2#2#2#3#3#L#J#4#5#5#6#6#R#o#j#k",
".##7.t#g.0#m.t.t.t.t.t.Q#8#k#j#o#R#3#b#K#L#T#W#5#4#9#b#5#R#o#j#k",
".#a..t.t.t.t.t.t.t.t.t.4a##j.I#j#o#B#K#L#P#Q#W#5#9#4aa#B#o#j.I#k",
".#ab.t.t.t.t.t.t.t.t.t.t.y#o#w#y#o#R#L#P#b#U#W#6#baa#4#R#oacad#k",
".#a..t.t.t.t.t.t.t.t.t.t.t.t#k.I#j#o#R#B#Q#U#b#6#5#B#R#o#j.I#k#k",
".##X.s.t.t.t.t.t.t.t.t.t.t.wae#k.I#j#o#o#R#U#B#6#R#o#o#j.I#k.G.#",
".#afagahaiaiaiaiaiaiaiaiajakal.S#k.I#y#j#o#o#o#o#o#jac.I#k#j.r.#",
"Qt.#.ramanaoaoaoanaoaoaoaoao.#.#ap#k#M.I#j#j#j#j#j.Iad#kanao.#.#",
"QtQt.#.#.#.#.#.#.#.#.#.#.#.#.#.#.##k#k#k#k#k#k#k#k#k#k#k.#.#.#.#"};
