/* XPM */
static const char *wintemplates_xpm[]={
"33 30 171 2",
"Qt c None",
"ac c #032c3f",
"ab c #033044",
"aa c #033449",
"a# c #04384f",
"a. c #043b54",
"#9 c #043f59",
"#8 c #05435e",
"#7 c #054663",
"#6 c #054a68",
"#5 c #054e6e",
"#m c #060f0f",
"#4 c #065273",
"#3 c #065578",
"#2 c #06597d",
"#N c #066087",
"#i c #075d83",
"#l c #081514",
"#M c #08658c",
"#L c #0a6a92",
"#Y c #0b6f97",
"#f c #0c211f",
"#K c #0c6f97",
"#X c #0d749c",
"#J c #0d759d",
"#I c #0f7aa2",
"#e c #102927",
"#W c #117fa7",
"#H c #117fa8",
"#V c #1284ad",
"#G c #1384ad",
"#U c #1489b2",
"#F c #148ab3",
".8 c #163533",
"#T c #168eb7",
"#E c #168fb8",
"#y c #186b8f",
"#S c #1893bc",
"#D c #1894be",
"#R c #1997c1",
".7 c #1a3d3a",
"#C c #1a99c3",
"#B c #1b9fc8",
".U c #1f4c48",
".T c #245551",
".# c #26615e",
"#h c #266562",
"#a c #286765",
"#g c #286966",
"## c #296c66",
"#b c #2b6866",
".I c #2c6560",
"#. c #2c6f6b",
".Y c #2c716b",
"#x c #2d7c9d",
".9 c #2f726d",
".H c #30716a",
".X c #30756f",
".W c #317772",
".M c #337a74",
".V c #347d77",
".L c #357e78",
"aH c #383838",
".K c #38817b",
".x c #39827a",
".B c #39847c",
".J c #3a857f",
".A c #3b887f",
".z c #3e8b85",
".r c #3e8d86",
".w c #408d85",
".y c #408f89",
"#w c #418baa",
".q c #41908a",
".0 c #437a78",
".p c #43948d",
".i c #45968f",
".o c #45988f",
".h c #469990",
"aI c #4f4f4f",
".Z c #518684",
".l c #555555",
"#v c #559bb6",
".O c #669794",
"#u c #6aa9c2",
".N c #74a29f",
"aF c #797979",
"at c #7d7d7d",
"#t c #7db7cc",
".d c #878787",
".D c #8ab1af",
"#s c #90c3d6",
".C c #96bbb9",
"aB c #989898",
"ax c #999999",
"al c #9a9a9a",
"ag c #9b9b9b",
"#O c #9c9c9c",
"#r c #a2cfdf",
"aE c #a9a9a9",
".t c #a9c8c6",
"#z c #aaaaaa",
"aO c #b4b4b4",
"aM c #b5b5b5",
".s c #b5d2d0",
"aK c #b6b6b6",
"#q c #b6dae7",
"aG c #b7b7b7",
"aD c #b8b8b8",
"az c #b9b9b9",
"aw c #bababa",
"ar c #bbbbbb",
"ao c #bcbcbc",
"ai c #bdbdbd",
"af c #bebebe",
"#1 c #bfbfbf",
"aN c #c0c0c0",
"aL c #c1c1c1",
"aJ c #c2c2c2",
".c c #c3c3c3",
".1 c #c4c4c4",
".P c #c5c5c5",
".E c #c6c6c6",
"as c #c7c7c7",
".k c #c7deda",
".u c #c8c8c8",
".m c #c9c9c9",
"#p c #c9e4ee",
"ae c #cacaca",
".g c #cbcbc8",
".j c #d2e5e2",
"aC c #d4d4d4",
"ay c #d5d5d5",
"av c #d6d6d6",
"am c #d7d7d7",
"ah c #d8d8d8",
"ad c #d9d9d9",
"#P c #dadada",
"#o c #daeef4",
"#A c #dedede",
"#j c #dfdfdf",
".f c #e4efee",
"an c #e5e5e5",
"#0 c #e6e6e6",
"#Z c #e7e7e7",
"#k c #e8e8e8",
"#Q c #e9e9e9",
"au c #eaeaea",
"aA c #ebebeb",
".e c #ebf2f1",
"aq c #ececec",
"#n c #ecf6fa",
"ak c #ededed",
".b c #eeeeee",
"#d c #efefef",
"aj c #f0f0f0",
".6 c #f1f1f1",
".5 c #f2f2f2",
".4 c #f3f3f3",
"#c c #f4f4f4",
".3 c #f5f5f5",
".S c #f6f6f6",
".2 c #f7f7f7",
".R c #f8f8f8",
".G c #f9f9f9",
".F c #fafafa",
".Q c #fbfbfb",
".v c #fcfcfc",
".n c #fdfdfd",
"ap c #fefefe",
".a c #ffffff",
"QtQtQtQtQtQtQtQtQtQtQtQtQtQtQtQtQtQtQtQtQtQtQtQtQtQtQtQtQtQtQtQtQt",
"QtQtQtQtQtQtQtQtQtQt.#.a.bQtQtQtQtQtQtQtQtQtQtQtQtQtQtQtQtQtQtQtQt",
"QtQtQtQtQtQtQtQtQtQt.#.b.c.b.dQtQtQtQtQtQtQtQtQtQtQtQtQtQtQtQtQtQt",
"QtQtQtQtQtQtQtQtQt.#.d.b.c.c.d.e.fQtQtQtQtQtQtQtQtQtQtQtQtQtQtQtQt",
"QtQtQtQtQtQtQtQtQt.#.g.d.d.d.h.h.i.j.kQtQtQtQtQtQtQtQtQtQtQtQtQtQt",
"QtQtQtQtQtQtQtQt.l.m.n.a.a.d.h.o.p.q.r.s.tQtQtQtQtQtQtQtQtQtQtQtQt",
"QtQtQtQtQtQtQtQt.l.u.a.n.v.a.a.w.x.y.z.A.B.C.DQtQtQtQtQtQtQtQtQtQt",
"QtQtQtQtQtQtQt.l.E.n.n.n.v.F.G.a.a.H.I.J.K.L.M.N.OQtQtQtQtQtQtQtQt",
"QtQtQtQtQtQtQt.l.P.v.v.v.Q.F.G.R.S.a.a.T.U.V.W.X.Y.Z.0QtQtQtQtQtQt",
"QtQtQtQtQtQt.l.1.F.F.Q.F.F.G.R.2.S.3.4.5.6.7.8.9#.###a#bQtQtQtQtQt",
"QtQtQtQtQtQt.l.c.G.G.G.G.G.R.2.S.3#c.4.5.6#d.b#e#f#g#hQtQtQtQtQtQt",
"#i#i#i#i#i#i#i#i#i#i#i#i#i#i#i#i#i#i#i#i#i#i#i#j#k#l#mQtQtQtQtQtQt",
".l.a.b.b.c.a#n#o#p#q#r#s#t#u#v#w#x#y.a.b.b.c#i#z#A.3.3QtQtQtQtQtQt",
".l.b.c.c.d#B#C#D#E#F#G#H#I#J#K#L#M#N.b.c.c.d#i#O#P#Q#k.3.3QtQtQtQt",
".l.b.c.c.d#C#R#S#T#U#V#W#I#X#Y#L#M#N.b.c.c.d#i#O#P#Q#Z#0#1.lQtQtQt",
".l.d.d.d.d#2#3#4#5#6#7#8#9a.a#aaabac.d.d.d.d.l#Oad#k#Z#0#1.lQtQtQt",
".lae.a.a.a.a.a.a.a.a.a.a.a.a.a.a.a.a.a.a.aaf.lagah#Z#0ai.lQtQtQtQt",
".l.m.a.c.c.c.c.c.c.c.c.F.G.R.S.3#c.5aj.bakai.lalam#0anao.lQtQtQtQt",
".l.uap.c.a.a.c.a.a.c.c.G.R.2.S#c.4.6aj.baqai.lalam#0ar.lQtQtQtQtQt",
".lasap.c.a.cat.a.cat.c.G.R.S.3#c.5.6#dakauao.lalavanaw.lQtQtQtQtQt",
".l.Eap.c.catat.catat.c.R.2.S.3.4.6#d.baqauar.laxayaz.lQtQtQtQtQtQt",
".l.P.n.c.a.a.c.a.a.c.c.R.S.3#c.5.6#dakaA#Qaw.laBaCaD.lQtQtQtQtQtQt",
".l.P.n.c.a.cat.a.cat.c.2.3#c.4.6#d.baqau#kaz.laBaE.lQtQtQtQtQtQtQt",
".l.1.v.c.catat.catat.c.S#c.4.6aj.bakaA#Q#ZaD.laFaE.lQtQtQtQtQtQtQt",
".l.c.v.c.c.c.c.c.c.c.c.3.4.5.6#dakaqau#k#ZaG.laHaIQtQtQtQtQtQtQtQt",
".laJ.Q.Q.F.G.R.R.S.S#c#c.5ajaj.baqau#k#Z#0aK.lQtQtQtQtQtQtQtQtQtQt",
".laL.Q.F.G.R.R.2.S.3.4.5.6#d.baqaA#Q#Z#0#0aM.lQtQtQtQtQtQtQtQtQtQt",
".laN#1#1afafafaiaoaoararawawazaDaGaKaKaMaOaO.lQtQtQtQtQtQtQtQtQtQt",
".l.l.l.l.l.l.l.l.l.l.l.l.l.l.l.l.l.l.l.l.l.l.lQtQtQtQtQtQtQtQtQtQt",
"QtQtQtQtQtQtQtQtQtQtQtQtQtQtQtQtQtQtQtQtQtQtQtQtQtQtQtQtQtQtQtQtQt"};
